<svg version="1.2" xmlns="http://www.w3.org/2000/svg" viewBox="0 0 16 16" width="16" height="16">
	<title>group-41-copy</title>
	<style>
		.s0 { fill: #090909 } 
	</style>
	<g>
		<g>
			<path class="s0" d="m15.9 0.1q-0.1-0.1-0.1-0.1 0 0-0.1 0 0 0 0 0-0.1 0-0.1 0l-10.9 2.9v-1.9q0-0.1-0.1-0.2 0 0-0.1-0.1-0.1 0-0.2 0 0 0-0.1 0l-1.3 0.7q-0.1 0-0.1 0-0.1 0.1-0.1 0.1 0 0 0 0.1 0 0 0 0.1v1.7l-2.4 0.6q-0.1 0-0.2 0.1 0 0 0 0-0.1 0.1-0.1 0.1 0 0.1 0 0.1v1.4q0 0 0 0.1 0.1 0.1 0.1 0.1 0.1 0.1 0.2 0.1 0 0 0.1 0l0.9-0.2v9.9c0 0.2 0.2 0.3 0.4 0.3h1.6v-8h9.4v8h1.6q0.1 0 0.2 0 0 0 0.1-0.1 0 0 0-0.1 0.1-0.1 0.1-0.1v-13.4l1.1-0.3q0 0 0.1-0.1 0 0 0 0 0.1-0.1 0.1-0.1 0-0.1 0-0.1v-1.4q0-0.1-0.1-0.2z"/>
			<path class="s0" d="m4.3 14.3h7.4v1.7h-7.4zm0-2.7h7.4v1.7h-7.4zm0-2.7h7.4v1.7h-7.4z"/>
		</g>
	</g>
</svg>