<svg width="16" height="16" viewBox="0 0 16 16" xmlns="http://www.w3.org/2000/svg">
    <path d="M9.674 4.103H3.686l.608-.886a.768.768 0 0 0 .044-.802A.796.796 0 0 0 3.637 2h-.002a.871.871 0 0 0-.676.319L1.091 4.612a.401.401 0 0 0 0 .509l1.868 2.293a.871.871 0 0 0 .676.319h.002c.294 0 .563-.16.701-.415a.768.768 0 0 0-.044-.802l-.608-.887h5.988c1.926 0 3.486 1.533 3.486 3.423 0 1.89-1.56 3.422-3.486 3.422H7.98a.77.77 0 0 0-.777.763.77.77 0 0 0 .777.763h1.694c2.784 0 5.04-2.215 5.04-4.948 0-2.733-2.256-4.949-5.04-4.949z" fill="#000" fill-rule="nonzero"/>
</svg>
