<svg width="18" height="21" viewBox="0 0 18 21" xmlns="http://www.w3.org/2000/svg" xmlns:xlink="http://www.w3.org/1999/xlink">
    <defs>
        <path id="w5etiovqga" d="M0 0h18v21H0z"/>
    </defs>
    <g fill="none" fill-rule="evenodd">
        <mask id="9n9c41y0eb" fill="#fff">
            <use xlink:href="#w5etiovqga"/>
        </mask>
        <path d="M7.328 16.165a20.579 20.579 0 0 0 2.754 2.107c.984.627 2.009 1.349 3.23.962.456-.145 2.426-1.524 2.747-1.893.313-.36.395-.796.262-1.249-.1-.343-1.12-1.728-1.4-2.052-1.269-1.463-2.495.383-3.623.968-.428.223-.62.164-.997-.108-1.778-1.284-3.82-4.185-4.73-6.174-.242-.53-.696-1.258-.212-1.756.878-.906 3.128-1.453 2.081-3.16-.207-.34-1.24-1.78-1.497-1.957-.678-.464-1.154-.243-1.762.149-.913.588-2.039 1.315-2.456 2.322-.042.102-.025-.05-.063.19-.138.869.073 1.657.285 2.504.84 3.349 2.849 6.797 5.38 9.147m1.088-5.617c.024.034.09.052.122.097a16.623 16.623 0 0 0 2.356 2.667c.707-.402 1.317-1.047 2.113-1.281.946-.28 1.942-.096 2.707.529.448.366 1.72 2.112 1.985 2.653.509 1.038.37 2.304-.379 3.186-.449.53-2.54 2.027-3.19 2.29-1.606.65-2.78.199-4.183-.607-4.952-2.843-8.65-7.96-9.778-13.556C-.483 3.3.805 2.3 3.29.672 4.54-.146 5.88-.314 7.086.713c.477.406 1.89 2.373 2.076 2.957.391 1.228.012 2.401-.962 3.225-.184.156-1.256.827-1.277.943a17.416 17.416 0 0 0 1.493 2.71" fill="#FFF" mask="url(#9n9c41y0eb)"/>
    </g>
</svg>
