<svg width="18.857" height="18.857" viewBox="0 0 18.857 18.857" xmlns="http://www.w3.org/2000/svg" xmlns:xlink="http://www.w3.org/1999/xlink">
    <defs>
        <path id="kh0lcka3pa" d="M0 0h11.786v18.857H0z"/>
    </defs>
    <g transform="translate(4.714)" fill="none" fill-rule="evenodd">
        <mask id="yw153qsy1b" fill="#fff">
            <use xlink:href="#kh0lcka3pa"/>
        </mask>
        <path d="M3.32 16.32a2.364 2.364 0 0 1-1.084-2.012c0-.862.438-1.607 1.084-2.013a3.668 3.668 0 0 0-.581 2.013c0 .77.224 1.467.581 2.012zm2.418-4.871v-3.84H3.625v3.84c-1.167.422-2 1.52-2 2.812 0 1.657 1.368 3 3.056 3s3.056-1.343 3.056-3c0-1.292-.833-2.39-2-2.812zm2.258-5.004h3.79v-.471h-3.79v.471zm0-3.712h3.79V2.26h-3.79v.472zm0 1.856h3.79v-.471h-3.79v.471zM4.681 18.22C2.46 18.219.65 16.444.65 14.261c0-1.414.762-2.705 2-3.415V2.632c0-1.1.911-1.994 2.031-1.994s2.032.895 2.032 1.994v8.215c1.238.71 2 2 2 3.414 0 2.183-1.809 3.958-4.032 3.958zm2.682-7.72V2.631C7.363 1.181 6.16 0 4.68 0 3.203 0 2 1.18 2 2.632v7.866a4.587 4.587 0 0 0-2 3.763c0 2.534 2.1 4.596 4.681 4.596 2.582 0 4.682-2.062 4.682-4.596 0-1.5-.758-2.91-2-3.763zm.633-4.982h3.365v-.471H7.996v.471zm0-1.856h3.365v-.472H7.996v.472z" fill="#FFF" mask="url(#yw153qsy1b)"/>
    </g>
</svg>
