<svg width="18.857" height="18.857" viewBox="0 0 18.857 18.857" xmlns="http://www.w3.org/2000/svg">
    <path d="M16.791 3.068a.647.647 0 0 0-.87 0l-2.774 2.587a57.386 57.386 0 0 0-2.393-3.522.63.63 0 0 0-.506-.247.629.629 0 0 0-.506.247c-.502.679-4.905 6.7-4.905 9.275 0 .597.113 1.17.318 1.702l-3.09 2.882a.547.547 0 0 0 0 .811c.121.112.279.168.436.168a.636.636 0 0 0 .435-.168l2.8-2.612c.97 1.363 2.63 2.264 4.512 2.264 2.985 0 5.413-2.264 5.413-5.047 0-1.147-.874-2.977-1.887-4.714l3.017-2.815a.547.547 0 0 0 0-.811zm-10.723 8.34c0-1.67 2.67-5.788 4.18-7.922.568.803 1.3 1.886 1.993 3.014l-6.09 5.681a3.657 3.657 0 0 1-.083-.773zm8.362 0c0 2.15-1.876 3.9-4.182 3.9-1.544 0-2.894-.786-3.618-1.95l6.232-5.813c.877 1.532 1.568 3.014 1.568 3.863z" fill="#000" fill-rule="nonzero"/>
</svg>
