<svg width="16" height="16" viewBox="0 0 16 16" xmlns="http://www.w3.org/2000/svg">
    <path d="M15.391 3.697 8.326.117 8.323.115a1.104 1.104 0 0 0-1 .01l-3.03 1.608a.472.472 0 0 0-.071.037L.59 3.698c-.364.19-.59.564-.59.976v6.652c0 .412.226.785.59.976l6.73 3.572.003.002a1.102 1.102 0 0 0 1 .009l7.068-3.582c.376-.187.609-.565.609-.985V4.682c0-.42-.233-.798-.609-.985zM7.757.955a.164.164 0 0 1 .147-.001l6.614 3.35-2.574 1.282-6.466-3.421 2.28-1.21zm-.4 13.878-6.329-3.36-.003-.001a.164.164 0 0 1-.088-.146v-6.23l6.42 3.348v6.389zm.474-7.199-6.385-3.33 3.032-1.608L10.912 6.1 7.83 7.634zm7.232 3.684a.163.163 0 0 1-.091.147L8.294 14.85V8.45l3.075-1.53v1.604a.469.469 0 0 0 .937 0V6.453l2.757-1.373v6.238z" fill="#1C1C1C" fill-rule="nonzero"/>
</svg>
