<svg width="16" height="16" viewBox="0 0 16 16" xmlns="http://www.w3.org/2000/svg">
    <g fill="#000" fill-rule="nonzero">
        <path d="M12.808 1.982A6.772 6.772 0 0 0 8 0a6.772 6.772 0 0 0-4.808 1.982A6.707 6.707 0 0 0 1.2 6.767c0 3.657 3.474 6.698 5.34 8.332.26.227.484.423.663.59.223.207.51.311.797.311.287 0 .574-.104.798-.312.178-.166.402-.362.661-.589 1.867-1.634 5.341-4.675 5.341-8.332a6.707 6.707 0 0 0-1.992-4.785zm-3.97 12.413c-.266.233-.495.433-.683.608a.228.228 0 0 1-.31 0c-.188-.175-.417-.376-.682-.608C5.408 12.86 2.142 10 2.142 6.767 2.142 3.553 4.77.937 8 .937c3.23 0 5.858 2.616 5.858 5.83 0 3.233-3.266 6.092-5.02 7.628z"/>
        <path d="M8 3.53a2.993 2.993 0 0 0-2.997 2.982A2.993 2.993 0 0 0 8 9.494a2.993 2.993 0 0 0 2.997-2.982A2.993 2.993 0 0 0 8 3.529zm0 5.026a2.052 2.052 0 0 1-2.055-2.045c0-1.127.922-2.044 2.055-2.044s2.055.917 2.055 2.044A2.052 2.052 0 0 1 8 8.556z"/>
    </g>
</svg>
