<svg width="19.2" height="19.2" viewBox="0 0 19.2 19.2" xmlns="http://www.w3.org/2000/svg">
    <path d="M16.423 9.57a.655.655 0 0 1-.198.478.71.71 0 0 1-.49.221 14.39 14.39 0 0 1-.444 0c-.193 0-.386-.002-.577.005l-.037.002.016.032c.163.29.331.589.508.879.101.15.131.337.083.511a.672.672 0 0 1-.35.407.648.648 0 0 1-.915-.236 23.203 23.203 0 0 0-.847-1.454.374.374 0 0 0-.22-.13c-.792-.023-1.595-.016-2.372-.011a.908.908 0 0 0-.092.004.797.797 0 0 0 .043.085l.228.397c.315.55.642 1.12.98 1.669a.35.35 0 0 0 .2.103c.41.02.826.018 1.229.013l.469-.002a.818.818 0 0 1 .596.327.466.466 0 0 1 .092.42c-.062.21-.187.637-.697.598-.35-.018-.704-.012-1.003 0l-.042.002a.23.23 0 0 0 .016.034c.092.165.187.33.281.491.07.121.138.242.207.366.112.21.124.458.032.678a.455.455 0 0 1-.313.278l-.048.012c-.205.05-.63.15-.856-.304-.122-.247-.276-.493-.423-.733l-.064-.103c-.01-.013-.016-.027-.026-.038a17.746 17.746 0 0 0-.407.694l-.069.123c-.115.19-.3.33-.517.386a.629.629 0 0 1-.48-.066.733.733 0 0 1-.199-.97l.12-.209c.218-.374.442-.762.674-1.137a.286.286 0 0 0 .009-.349 51.614 51.614 0 0 1-.718-1.228c-.145-.251-.29-.505-.437-.756a.783.783 0 0 0-.069-.103c-.025.035-.048.07-.069.108l-.423.732c-.23.402-.47.82-.718 1.222a.325.325 0 0 0 .012.409c.13.212.253.429.375.643.142.252.29.512.444.756.093.134.127.3.094.46a.728.728 0 0 1-.345.44.757.757 0 0 1-.389.114.593.593 0 0 1-.545-.345c-.122-.23-.26-.459-.393-.68l-.097-.162c-.018-.032-.035-.057-.046-.076a.605.605 0 0 0-.053.08c-.078.13-.154.263-.23.393l-.232.397a.727.727 0 0 1-.937.29.76.76 0 0 1-.248-.945l.258-.454a27.388 27.388 0 0 0 .26-.455h-.021c-.334 0-.663.005-.99.012a.751.751 0 0 1-.736-.658.77.77 0 0 1 .709-.687h.382c.418.002.855.004 1.279-.018a.374.374 0 0 0 .232-.133c.336-.539.658-1.1.969-1.644l.223-.388c.018-.036.034-.064.043-.087-.027-.004-.064-.004-.112-.006-.143-.003-.428 0-.753.002-.607.004-1.292.007-1.532-.007-.172-.016-.25.032-.345.2-.188.353-.393.697-.593 1.033l-.205.35a.82.82 0 0 1-.55.346.513.513 0 0 1-.43-.102c-.329-.295-.398-.6-.205-.91.175-.282.345-.584.509-.874l.018-.036-.034-.002a15.471 15.471 0 0 0-.651-.003c-.113.003-.224.003-.334.003a.735.735 0 0 1-.727-.663.77.77 0 0 1 .745-.691c.157-.005.316-.005.477-.005h.004c.157 0 .313 0 .472-.002.02 0 .037-.003.05-.003-.004-.011-.013-.025-.02-.04-.076-.136-.152-.266-.226-.396a22.914 22.914 0 0 1-.232-.402.835.835 0 0 1-.07-.632c.04-.161.144-.3.288-.384a.759.759 0 0 1 .95.331l.104.176c.232.39.472.797.695 1.206a.228.228 0 0 0 .244.15c.455-.006.91-.006 1.366-.006.337.002.676.002 1.015 0 .032 0 .057 0 .08-.003-.01-.016-.018-.036-.032-.06a59.334 59.334 0 0 0-1.224-2.1.372.372 0 0 0-.212-.084 19.915 19.915 0 0 0-1.651 0c-.49.025-.633-.354-.707-.557l-.018-.044a.418.418 0 0 1 .074-.395.881.881 0 0 1 .644-.372c.163-.002.324 0 .501-.002.164 0 .327 0 .488-.002.014 0 .028-.003.041-.003L5.99 5.26c-.147-.269-.324-.59-.522-.899a.57.57 0 0 1-.085-.452.725.725 0 0 1 .343-.427.75.75 0 0 1 .561-.09.61.61 0 0 1 .368.309c.17.3.35.607.527.91.004.008.01.012.014.019a.091.091 0 0 1 .011-.018l.108-.174c.14-.212.266-.433.378-.662.23-.5.69-.386.888-.335a.5.5 0 0 1 .329.303.804.804 0 0 1-.017.676c-.078.135-.156.265-.234.397-.2.336-.407.683-.587 1.032a.357.357 0 0 0-.002.263c.35.646.731 1.292 1.1 1.918l.073.125c.016.03.034.06.053.087a.55.55 0 0 0 .046-.07l.225-.384c.318-.541.647-1.099.948-1.658a.445.445 0 0 0-.002-.299 17.77 17.77 0 0 0-.837-1.445.622.622 0 0 1 .147-.836l.041-.048a.506.506 0 0 1 .432-.134.749.749 0 0 1 .555.308c.085.146.168.29.248.434.08.144.161.285.244.427l.05.082c.022-.03.042-.062.06-.094.164-.265.332-.532.472-.81a.62.62 0 0 1 .394-.336.684.684 0 0 1 .54.103c.167.098.29.257.34.443a.597.597 0 0 1-.09.463c-.153.242-.287.484-.43.742l-.04.073a8.4 8.4 0 0 1-.051.094c.032.002.073.002.126.002.14 0 .28 0 .421-.002.14-.003.285-.003.428-.003a.748.748 0 0 1 .76.663c-.001.17-.07.332-.194.45a.844.844 0 0 1-.584.248c-.18.002-.361 0-.543 0-.352 0-.718-.002-1.08.016a.342.342 0 0 0-.195.114c-.41.66-.796 1.338-1.189 2.032-.023.04-.037.069-.048.092.027.002.064.004.112.004.332.003.66.003.99 0 .441 0 .88 0 1.322.007.13.02.257-.055.302-.178.129-.233.262-.463.398-.692.145-.246.29-.495.428-.746a.615.615 0 0 1 .381-.315.713.713 0 0 1 .548.089c.16.088.279.234.331.408a.59.59 0 0 1-.071.47c-.156.281-.322.565-.49.85l-.055.103c.032.002.073.004.126.004l.161.003c.258.006.502.011.746-.003a.65.65 0 0 1 .49.153.688.688 0 0 1 .214.505z" fill="#FFF" fill-rule="nonzero"/>
</svg>
